<?xml version="1.0" encoding="iso-8859-1"?>
<!-- Generator: Adobe Illustrator 19.0.0, SVG Export Plug-In . SVG Version: 6.00 Build 0)  -->
<svg version="1.1" id="Capa_1" xmlns="http://www.w3.org/2000/svg" xmlns:xlink="http://www.w3.org/1999/xlink" x="0px" y="0px"
	 viewBox="0 0 390.246 390.246" style="enable-background:new 0 0 390.246 390.246;" xml:space="preserve">
<path style="fill:#A4ABB1;" d="M306.647,342.953c-3.149-4.695-9.513-5.939-14.208-2.785l0,0
	c-27.832,18.703-61.251,29.599-97.321,29.604c-48.256-0.005-91.848-19.528-123.489-51.149
	c-31.621-31.637-51.144-75.233-51.149-123.494c0.005-40.663,13.88-77.983,37.161-107.663l4.818,23.311
	c1.147,5.54,6.559,9.098,12.099,7.956c5.54-1.142,9.103-6.564,7.962-12.104L71.542,53.601l-54.144-0.916
	C11.74,52.588,7.076,57.098,6.984,62.751s4.413,10.317,10.066,10.414l0,0l25.472,0.43C15.939,106.916-0.01,149.187,0,195.123
	c0.005,107.776,87.363,195.118,195.118,195.123c40.223,0.005,77.686-12.196,108.749-33.085
	C308.557,354.007,309.806,347.643,306.647,342.953z"/>
<g>
	<path style="fill:#1BB7EA;" d="M371.256,316.672L371.256,316.672l-23.183-0.399c26.378-33.275,42.173-75.407,42.173-121.149
		C390.236,87.347,302.884,0.005,195.118,0C153.052-0.005,114.007,13.343,82.15,36.009c-4.608,3.277-5.688,9.672-2.412,14.28
		c3.277,4.608,9.672,5.688,14.28,2.412c28.544-20.296,63.38-32.215,101.1-32.22c48.261,0.005,91.858,19.528,123.494,51.149
		c31.626,31.636,51.144,75.233,51.154,123.494c-0.005,41.503-14.469,79.555-38.63,109.532l-5.304-25.61
		c-1.147-5.54-6.564-9.093-12.104-7.946c-5.535,1.147-9.088,6.564-7.946,12.104l10.977,53.018l54.139,0.932
		c5.652,0.097,10.322-4.408,10.419-10.061C381.414,321.428,376.909,316.769,371.256,316.672z"/>
	<path style="fill:#1BB7EA;" d="M271.36,134.246c0-16.896-13.824-30.72-30.72-30.72h-92.16c-16.901,0-30.72,13.824-30.72,30.72v128
		c0,16.896,13.819,30.72,30.72,30.72l66.56,0.02l56.32-56.32V134.246z"/>
</g>
<g>
	<path style="fill:#1F4254;" d="M245.77,236.708l25.6-0.041l-56.33,56.32l0.01-25.559
		C215.05,250.537,228.879,236.708,245.77,236.708"/>
	<path style="fill:#1F4254;" d="M163.84,156.155h61.44c4.239,0,7.68-3.436,7.68-7.68s-3.441-7.68-7.68-7.68h-61.44
		c-4.244,0-7.68,3.43-7.68,7.68C156.16,152.719,159.596,156.155,163.84,156.155"/>
	<path style="fill:#1F4254;" d="M163.84,192h34.632c4.239,0,7.68-3.441,7.68-7.68c0-4.244-3.441-7.68-7.68-7.68H163.84
		c-4.244,0-7.68,3.441-7.68,7.68C156.16,188.554,159.596,192,163.84,192"/>
</g>
<path style="fill:#1CA8D7;" d="M252.247,164.972l-20.285-20.285c0.635,1.121,0.993,2.412,0.993,3.789c0,4.244-3.441,7.68-7.68,7.68
	h-61.44c-2.048,0-3.912-0.804-5.289-2.109l-0.031,0.01l10.931,10.931l11.638,11.648h17.382c4.239,0,7.68,3.441,7.68,7.68
	c0,4.239-3.441,7.68-7.68,7.68h-34.621h-0.005c-1.638,0-3.149-0.512-4.398-1.388l4.408,4.408l55.992,55.992
	c5.463-8.581,15.058-14.3,25.928-14.3l25.59-0.041l0.01-52.577L252.247,164.972z"/>
<g>
</g>
<g>
</g>
<g>
</g>
<g>
</g>
<g>
</g>
<g>
</g>
<g>
</g>
<g>
</g>
<g>
</g>
<g>
</g>
<g>
</g>
<g>
</g>
<g>
</g>
<g>
</g>
<g>
</g>
</svg>
